<svg xmlns="http://www.w3.org/2000/svg" viewBox="0 0 120 120" xml:space="preserve"><path fill="#FBCF26" d="m70.891 47.44.001.918-11.329 6.554-11.341-6.535-.001-.904-3.726 2.155 15.048 8.586L74.639 49.6l-3.748-2.16zm-4.418-11.25-6.929-3.994-6.898 3.99 7.008 4.279 6.819-4.275z"/><path fill="#1A2559" d="m79.153 48.739-8.266-4.762-.007-8.709-11.34-6.536-11.331 6.554.009 8.724-8.233 4.762.018 22.615L59.598 82.68l19.576-11.323-.021-22.618zm-11.26-2.11-6.832 3.951v-7.458l6.823-4.277.009 7.784zm-9.831 3.957-6.846-3.944-.007-7.816 6.853 4.185v7.575zm1.482-18.389 6.929 3.994-6.819 4.275-7.008-4.279 6.898-3.99zm-11.322 16.18 11.341 6.535.751-.433 10.578-6.121-.001-.918 3.748 2.16-15.096 8.615-15.048-8.586 3.726-2.155.001.903zm-5.237 3.844 15.077 8.603v17.508L43 69.655l-.015-17.434zm18.076 26.145V60.802l15.096-8.613.016 17.437-15.112 8.74z"/><path fill="#FBCF26" d="M79.173 64.032v3.437l6.775 3.779-26.389 15.613-26.384-15.613 6.824-3.806-.003-3.431-12.838 7.158 32.401 19.179 32.41-19.178z"/></svg>