<svg xmlns="http://www.w3.org/2000/svg" viewBox="0 0 120 120" xml:space="preserve"><path fill="#FBCF26" d="M35.472 77.455a7.577 7.577 0 0 1-7.569-7.569v-1.178h32.081v8.747H35.472zM91.223 76.641a.78.78 0 0 1-.777.775H63.761a.78.78 0 0 1-.777-.775v-2.546h28.239v2.546zM91.223 64.292H62.984V44.136c0-.431.349-.777.777-.777h2.711v5.429a1.5 1.5 0 1 0 2.999 0v-5.429h5.313V55.4a1.5 1.5 0 1 0 3 0V43.359h6.824v5.429a1.5 1.5 0 0 0 3 0v-5.429h2.836c.43 0 .777.347.777.777v20.156zM27.903 32.6a7.576 7.576 0 0 1 7.569-7.568h36.781a7.582 7.582 0 0 1 7.571 7.568v1.442H27.903V32.6z"/><path fill="#1A2559" d="M90.446 40.358h-7.621l-.002-7.758c0-5.837-4.73-10.567-10.57-10.57H35.472c-5.839.003-10.568 4.733-10.57 10.57v37.286c0 5.838 4.731 10.568 10.57 10.57h35.661V90.89a6.159 6.159 0 0 0 6.159 6.161 6.16 6.16 0 0 0 6.161-6.161V80.417h6.994a3.779 3.779 0 0 0 3.778-3.776V44.136a3.781 3.781 0 0 0-3.779-3.778zM27.903 32.6a7.576 7.576 0 0 1 7.569-7.568h36.781a7.582 7.582 0 0 1 7.571 7.568v1.442H27.903V32.6zm7.569 44.855a7.577 7.577 0 0 1-7.569-7.569v-1.178h32.081v8.747H35.472zm24.513-33.319-.001 21.571H27.903V37.041h51.921v3.316H63.761a3.78 3.78 0 0 0-3.776 3.779zM80.454 90.89a3.168 3.168 0 0 1-3.162 3.162 3.168 3.168 0 0 1-3.16-3.162V80.417h6.322V90.89zm10.769-14.249a.78.78 0 0 1-.777.775H63.761a.78.78 0 0 1-.777-.775v-2.546h28.239v2.546zm0-5.547H62.984v-3.803h28.239v3.803zm0-6.802H62.984V44.136c0-.431.349-.777.777-.777h2.711v5.429a1.5 1.5 0 1 0 2.999 0v-5.429h5.313V55.4a1.5 1.5 0 1 0 3 0V43.359h6.824v5.429a1.5 1.5 0 0 0 3 0v-5.429h2.836c.43 0 .777.347.777.777v20.156zM39.085 28.208h-6.168a1.5 1.5 0 0 0 0 3h6.168a1.501 1.501 0 0 0 0-3zm35.416 0h-6.166a1.499 1.499 0 1 0 0 3h6.166a1.5 1.5 0 1 0 0-3z"/><path fill="#FBCF26" d="M37.17 50.707a8.165 8.165 0 0 1 8.166-8.166 6.832 6.832 0 0 1 6.83 6.832 5.766 5.766 0 0 1-5.765 5.766 4.912 4.912 0 0 1-4.911-4.911 4.23 4.23 0 0 1 4.229-4.231 3.678 3.678 0 0 1 2.917 1.436 3.834 3.834 0 0 0-3.3-1.89 5.171 5.171 0 0 0-5.165 5.165 6.839 6.839 0 0 0 6.83 6.829v3.001c-5.43-.004-9.831-4.404-9.831-9.831zm9.087-.677h-.102v-.101c.138 0 .248-.11.248-.246a.688.688 0 0 0-.684-.686 1.235 1.235 0 0 0-1.215 1.033h1.753z"/></svg>