<svg xmlns="http://www.w3.org/2000/svg" viewBox="0 0 120 120" xml:space="preserve"><path fill="#FBCF26" d="M86.957 47.563v3.275h4.1v-3.275h-4.1zM53.133 83.406a2.511 2.511 0 0 1-2.509 2.507H30.579a2.51 2.51 0 0 1-2.509-2.507v-2.697h25.063v2.697z"/><path fill="#1A2559" d="M89.196 30.166H40.171a4.863 4.863 0 0 0-4.863 4.86v6.344h-4.729a5.508 5.508 0 0 0-5.509 5.509v36.527a5.51 5.51 0 0 0 5.509 5.509h20.046l.023-.001 38.549-.002a4.858 4.858 0 0 0 4.861-4.86V35.026a4.863 4.863 0 0 0-4.862-4.86zm-36.063 53.24a2.511 2.511 0 0 1-2.509 2.507H30.579a2.51 2.51 0 0 1-2.509-2.507v-2.697h25.063v2.697zm0-5.698H28.07V46.879a2.511 2.511 0 0 1 2.509-2.509h20.046a2.513 2.513 0 0 1 2.509 2.509v30.829zm30.823 8.204-28.432.002a5.494 5.494 0 0 0 .609-2.508V46.879a5.508 5.508 0 0 0-5.509-5.509H38.31v-6.344a1.863 1.863 0 0 1 1.861-1.86h43.785v52.746zm7.101-1.86a1.864 1.864 0 0 1-1.861 1.86h-2.239V53.839h4.1v30.213zm0-33.213h-4.1v-3.275h4.1v3.275zm0-6.275h-4.1V33.166h2.239a1.863 1.863 0 0 1 1.861 1.86v9.538zM39.763 84.8a1.448 1.448 0 1 0 0-2.895 1.448 1.448 0 0 0 0 2.895zm3.942-37.851h-6.436a.805.805 0 0 0 0 1.61h6.436a.805.805 0 0 0 0-1.61z"/><path fill="#FBCF26" d="M79.153 36.893a1.5 1.5 0 0 0-1.499-1.5H44.106a1.5 1.5 0 0 0 0 3h33.548a1.5 1.5 0 0 0 1.499-1.5zm-1.499 5.258H60.76a1.5 1.5 0 1 0 0 2.998h16.893a1.5 1.5 0 0 0 .001-2.998zm-16.895 9.756h16.895a1.499 1.499 0 1 0 0-2.998H60.759a1.5 1.5 0 1 0 0 2.998zm.001 6.76h16.895a1.5 1.5 0 0 0 0-3.002H60.76a1.5 1.5 0 0 0 0 3.002zm-.001 6.757h16.894a1.5 1.5 0 0 0 0-3H60.759a1.5 1.5 0 0 0 0 3zm16.894 4.723H60.759a1.499 1.499 0 1 0 0 3h16.894a1.5 1.5 0 1 0 0-3zm.001 6.756H60.759c-.829 0-1.498.672-1.498 1.501 0 .828.67 1.5 1.498 1.5h16.895a1.5 1.5 0 1 0 0-3.001z"/></svg>